<svg xmlns="http://www.w3.org/2000/svg" style="display:none">
  <symbol id="phone" viewBox="0 0 24 24">
    <path fill="currentColor" d="M6.6 10.2a15.05 15.05 0 006.2 6.2l1.9-1.9a1 1 0 01.9-.27c1 .22 2.1.34 3.2.34a1 1 0 011 1V20a1 1 0 01-1 1c-9.4 0-17-7.6-17-17a1 1 0 011-1h3.4a1 1 0 011 1c0 1.1.12 2.2.34 3.2.07.3 0 .63-.27.9l-1.9 1.9z"/>
  </symbol>
  <symbol id="whatsapp" viewBox="0 0 24 24">
    <path fill="currentColor" d="M20.5 3.5A11.9 11.9 0 0012 0C5.4 0 .1 5.3.1 11.9c0 2 .5 4 .9 4.7L0 24l7.6-1.9c.6.3 2.6.9 4 .9 6.6 0 11.9-5.3 11.9-11.9 0-3.2-1.3-6.2-3-8.6zM12 21c-1.2 0-3.1-.6-4.4-.9l-.3-.1-4.5 1 1.1-4.1-.2-.4C2 14.8 1.5 13.4 1.5 11.9 1.5 7.2 5.3 3.5 10 3.5c2.7 0 5.1 1.1 6.9 2.9 1.8 1.9 2.9 4.4 2.9 7.1 0 4.7-3.7 8.5-8.8 8.5z"/>
    <path fill="currentColor" d="M8.2 7.7c-.2 0-.4 0-.6.1-.2.1-.4.2-.5.4-.1.1-.4.4-.4.7 0 .3.1.8.6 1.6.5.8 1.9 2.9 4.8 4.8 2.9 1.9 3.9 1.2 4.6.9.6-.3 1.2-.6 1.4-1 .2-.4.2-.7.1-.9-.1-.2-.5-.5-1.1-1-.6-.5-1.4-1.1-1.6-1.3-.2-.2-.3-.3-.5-.5-.2-.1-.4-.1-.6 0-.2.1-1.1.5-1.3.6-.2.1-.3.1-.6 0-.3-.1-1.2-.4-2.3-1.3-1.1-.9-1.9-2-2.1-2.3-.2-.3 0-.5.2-.6.2-.1.4-.3.6-.4.2-.1.2-.2.3-.4.1-.2 0-.4 0-.6 0-.2-.6-1.3-.9-1.7-.2-.4-.5-.4-.7-.4z"/>
  </symbol>
  <symbol id="mail" viewBox="0 0 24 24">
    <path fill="currentColor" d="M3.5 4h17a1 1 0 011 1v14a1 1 0 01-1 1h-17a1 1 0 01-1-1V5a1 1 0 011-1zm1.2 2v.8l7.3 4.9 7.3-4.9V6L12 11 4.7 6z"/>
  </symbol>
</svg>